<?xml version="1.0" encoding="iso-8859-1"?>
<!-- Uploaded to: SVG Repo, www.svgrepo.com, Generator: SVG Repo Mixer Tools -->
<!DOCTYPE svg PUBLIC "-//W3C//DTD SVG 1.1//EN" "http://www.w3.org/Graphics/SVG/1.1/DTD/svg11.dtd">
<svg fill="#000000" version="1.1" id="Capa_1" xmlns="http://www.w3.org/2000/svg" xmlns:xlink="http://www.w3.org/1999/xlink" 
	 width="35" height="35" viewBox="0 0 122.709 122.709"
	 xml:space="preserve">
<g>
	<g>
		<circle cx="92.693" cy="12.698" r="12.698"/>
		<path d="M119.508,63.918c-2.947-20.103-7.412-28.714-18.37-35.433c-0.212-0.129-0.435-0.223-0.657-0.319
			c-1.415-0.942-3.002-1.636-4.622-2.034l-3.165,3.184l-3.066-3.219c-0.01,0.001-0.021,0.003-0.031,0.007
			c-1.547,0.369-3.064,1.013-4.434,1.886c-0.006,0.001-0.01,0.003-0.014,0.003c-2.061,0.961-20.434,12.671-17.929,22.964
			c1.381,5.683,7.411,7.329,12.477,7.744v6.498c0,1.326,0.259,2.562,0.712,3.699c-0.035,0.258-0.06,0.518-0.06,0.781l0.003,47.205
			c0,3.217,2.609,5.824,5.826,5.824c3.218,0,5.824-2.609,5.824-5.827v-40.51c0.229,0.012,0.461,0.028,0.691,0.028
			c0.046,0,0.092-0.004,0.137-0.006l-0.002,40.486c0,3.219,2.608,5.827,5.826,5.827c3.219,0,5.826-2.608,5.826-5.827l0.001-46.912
			c0.763-1.414,1.207-3.017,1.207-4.771V48.218c1.578,3.938,2.924,9.347,4.063,17.129c0.36,2.453,2.465,4.217,4.873,4.217
			c0.237,0,0.478-0.018,0.72-0.055C118.039,69.117,119.903,66.611,119.508,63.918z M79.696,48.776
			c-1.35-0.147-2.188-0.372-2.677-0.548c0.4-0.982,1.4-2.288,2.677-3.667V48.776z M107.039,40.953l-9.414,20.443
			c-0.439,0.959-1.433,1.58-2.528,1.58c-0.435,0-0.854-0.094-1.252-0.277l-8.527-3.926c0.181-0.005,0.356-0.013,0.517-0.021
			c0.764-0.031,1.472-0.251,2.104-0.591c0.023,0.328,0.207,0.635,0.525,0.782l5.449,2.509c0.327,0.149,0.676,0.228,1.025,0.228
			c0.245,0,0.488-0.039,0.727-0.115c0.6-0.191,1.07-0.605,1.328-1.164l8.684-18.86c0.256-0.558,0.265-1.185,0.021-1.767
			c-0.231-0.553-0.667-0.999-1.226-1.256l-12.436-5.727c-1.182-0.539-2.562-0.069-3.078,1.054l-6.324,13.736
			c-0.215,0.469-0.01,1.02,0.457,1.234c0.466,0.216,1.019,0.011,1.232-0.455l6.324-13.738c0.087-0.188,0.368-0.254,0.611-0.141
			l12.435,5.725c0.134,0.062,0.237,0.165,0.289,0.287c0.026,0.067,0.052,0.166,0.005,0.268l-8.684,18.862
			c-0.047,0.101-0.141,0.149-0.209,0.171c-0.127,0.043-0.27,0.03-0.403-0.031l-5.448-2.51c-0.022-0.009-0.047-0.008-0.07-0.017
			c0.899-0.936,1.438-2.218,1.379-3.617c-0.114-2.72-2.436-4.845-5.133-4.718c-1.955,0.083-3.5,0.054-4.726-0.034l7.615-16.538
			c0.442-0.96,1.435-1.58,2.53-1.58c0.433,0,0.854,0.092,1.254,0.276l0.363,0.168l0.209-1.407h0.06l0.247,1.643l12.598,5.801
			C107.017,37.899,107.676,39.566,107.039,40.953z"/>
		<path d="M77.107,63.281l-2.074-1.775c-4.703-1.889-7.334-4.802-8.793-7.522l-8.248-7.059v15.241L40.182,46.924v19.01H28.253
			l-2.421-42.8H7.326l-4.177,81.957h15.481V85.666h10.321v19.426h1.518h47.28l-0.004-37.586
			C77.353,66.131,77.146,64.716,77.107,63.281z"/>
		<path d="M17.222,17.19c0.642-0.28,1.325-0.578,2.032-0.85c0.705-0.267,1.432-0.523,2.123-0.668
			c0.674-0.166,1.328-0.181,1.623-0.08c0.295,0.137,0.205,0.12,0.417,0.412c0.024,0.032,0.048,0.075,0.073,0.122l0.188,0.32
			l0.147,0.231l0.188,0.275c0.122,0.159,0.233,0.313,0.37,0.464c0.534,0.6,1.245,1.146,2.042,1.5
			c0.796,0.357,1.642,0.483,2.386,0.486c0.751,0.011,1.415-0.142,2.007-0.309c1.178-0.362,2.09-0.9,2.863-1.463
			c0.772-0.561,1.402-1.16,1.935-1.743c1.06-1.171,1.743-2.273,2.144-3.106c0.42-0.812,0.566-1.342,0.566-1.342
			S37.8,11.594,36.972,11.9c-0.42,0.146-0.922,0.322-1.474,0.531c-0.54,0.2-1.148,0.427-1.812,0.674
			c-0.647,0.233-1.333,0.471-2.018,0.673c-0.684,0.198-1.378,0.354-1.952,0.392c-0.586,0.037-0.941-0.075-1.029-0.169
			c-0.061-0.041-0.117-0.087-0.212-0.204c-0.026-0.021-0.053-0.063-0.083-0.089l-0.016-0.02c-0.006-0.004-0.009,0.003-0.051-0.066
			l-0.186-0.293c-0.096-0.159-0.201-0.318-0.32-0.478c-0.448-0.64-1.115-1.245-1.895-1.685c-0.785-0.44-1.668-0.665-2.457-0.689
			c-1.593-0.062-2.783,0.42-3.773,0.896c-0.979,0.515-1.78,1.096-2.471,1.694c-0.69,0.6-1.277,1.204-1.775,1.793
			c-0.501,0.586-0.918,1.149-1.263,1.667c-0.352,0.51-0.61,0.995-0.832,1.379c-0.425,0.788-0.603,1.28-0.603,1.28
			s0.483-0.2,1.281-0.557C14.798,18.286,15.899,17.788,17.222,17.19z"/>
	</g>
</g>
</svg>