<?xml version="1.0" standalone="no"?>
<!DOCTYPE svg PUBLIC "-//W3C//DTD SVG 20010904//EN"
 "http://www.w3.org/TR/2001/REC-SVG-20010904/DTD/svg10.dtd">
<svg version="1.0" xmlns="http://www.w3.org/2000/svg"
 width="512.000000pt" height="512.000000pt" viewBox="0 0 512.000000 512.000000"
 preserveAspectRatio="xMidYMid meet">

<g transform="translate(0.000000,512.000000) scale(0.100000,-0.100000)"
fill="#000000" stroke="none">
<path d="M2388 4136 l-637 -733 -498 169 c-274 92 -503 166 -508 164 -6 -2
-113 -214 -240 -472 -126 -258 -230 -470 -231 -472 -1 -2 -21 2 -44 9 -79 24
-173 -19 -210 -96 -37 -77 -21 -155 43 -212 65 -57 160 -64 226 -16 37 27 71
99 71 150 0 51 -40 31 358 178 170 62 297 104 302 99 5 -5 99 -142 208 -304
l199 -295 1133 0 1134 0 202 300 c111 165 208 301 215 302 8 1 156 -51 329
-115 l315 -118 6 -56 c10 -95 56 -150 138 -169 57 -13 112 3 161 47 67 61 78
155 27 233 -42 62 -123 88 -221 70 -17 -3 -54 67 -250 468 -127 260 -235 472
-240 473 -4 0 -274 -90 -598 -201 -324 -110 -591 -199 -593 -197 -7 7 34 671
42 678 8 7 615 120 645 120 9 0 19 -9 23 -19 10 -32 81 -89 120 -97 55 -10
112 1 150 31 146 111 60 338 -122 323 -41 -4 -62 -12 -92 -36 -22 -18 -43 -32
-46 -32 -3 0 -199 126 -435 280 -236 154 -432 280 -437 280 -4 0 -295 -330
-645 -734z"/>
<path d="M1473 2023 c9 -178 39 -383 83 -563 170 -694 599 -1213 1004 -1213
177 0 349 90 527 276 318 333 531 904 560 1500 l6 137 -1093 0 -1093 0 6 -137z
m744 -273 c62 -22 124 -63 178 -120 39 -40 40 -42 20 -57 -53 -41 -149 -76
-220 -81 -89 -6 -150 13 -220 66 -54 41 -147 150 -139 163 6 10 96 37 162 49
62 11 154 3 219 -20z m970 5 c26 -7 61 -18 76 -24 l28 -11 -33 -46 c-44 -62
-118 -127 -176 -156 -39 -19 -63 -23 -137 -23 -80 0 -97 3 -155 31 -36 18 -74
39 -85 48 -20 16 -19 17 41 74 124 119 269 154 441 107z m-1023 -657 c71 -49
182 -101 256 -119 30 -7 93 -13 140 -13 164 0 301 55 482 194 l27 21 -11 -31
c-6 -18 -32 -74 -59 -126 -121 -238 -267 -376 -414 -391 -163 -17 -337 133
-469 402 -72 147 -73 152 -39 126 16 -12 54 -40 87 -63z"/>
</g>
</svg>
