<?xml version="1.0" encoding="UTF-8"?>
<svg version="1.1" xmlns="http://www.w3.org/2000/svg" width="449" height="379">
<path d="M0 0 C14.42380516 -0.61208029 29.74966019 5.07993102 40.9296875 14.16015625 C40.40835888 19.34277602 37.81393085 23.15555209 35.1171875 27.47265625 C34.67826172 28.21322266 34.23933594 28.95378906 33.78710938 29.71679688 C33.35333984 30.41611328 32.91957031 31.11542969 32.47265625 31.8359375 C31.8852063 32.79367065 31.8852063 32.79367065 31.28588867 33.77075195 C30.83834229 34.22925537 30.3907959 34.68775879 29.9296875 35.16015625 C25.59211729 35.16015625 25.0641146 34.81928824 21.8046875 32.34765625 C13.53762918 26.64298142 4.88164564 25.03898628 -5.0703125 26.16015625 C-14.94167921 28.32793777 -22.56231164 32.22979682 -28.3828125 40.59765625 C-34.05822758 49.77393878 -36.58156428 58.89950036 -34.609375 69.6796875 C-31.77329485 80.27328098 -26.49049571 88.39891984 -17.0703125 94.16015625 C-11.86948076 96.81444138 -6.83526242 97.593112 -1.0703125 98.16015625 C0.60024899 98.47338653 2.26927675 98.7969414 3.9296875 99.16015625 C3.9296875 98.50015625 3.9296875 97.84015625 3.9296875 97.16015625 C4.53296875 97.18335938 5.13625 97.2065625 5.7578125 97.23046875 C6.55703125 97.24851562 7.35625 97.2665625 8.1796875 97.28515625 C9.36304687 97.31996094 9.36304687 97.31996094 10.5703125 97.35546875 C13.22962184 97.13532725 14.75565637 96.71303563 16.9296875 95.16015625 C17.62600965 93.2065018 17.62600965 93.2065018 17.6796875 91.03515625 C17.7621875 89.75640625 17.8446875 88.47765625 17.9296875 87.16015625 C17.2696875 87.16015625 16.6096875 87.16015625 15.9296875 87.16015625 C15.8046875 79.41015625 15.8046875 79.41015625 16.9296875 77.16015625 C17.16141577 74.61400616 17.34863279 72.086194 17.4921875 69.53515625 C17.55696289 68.47554687 17.55696289 68.47554687 17.62304688 67.39453125 C17.72913501 65.64997088 17.82991639 63.90508928 17.9296875 62.16015625 C23.22622629 61.22056001 28.01637267 61.1717451 33.3671875 61.59765625 C34.09873047 61.64986328 34.83027344 61.70207031 35.58398438 61.75585938 C37.36637372 61.88400501 39.1481132 62.02113785 40.9296875 62.16015625 C40.9594165 63.17384277 40.9594165 63.17384277 40.98974609 64.20800781 C41.08511988 67.27577669 41.19474915 70.34287623 41.3046875 73.41015625 C41.335625 74.47363281 41.3665625 75.53710938 41.3984375 76.6328125 C41.43710938 77.65761719 41.47578125 78.68242187 41.515625 79.73828125 C41.5470459 80.6809082 41.5784668 81.62353516 41.61083984 82.59472656 C41.9384829 85.23092353 42.67651873 86.84918197 43.9296875 89.16015625 C44.1796875 91.78515625 44.1796875 91.78515625 43.9296875 94.16015625 C43.2696875 94.82015625 42.6096875 95.48015625 41.9296875 96.16015625 C41.85760604 98.40909784 41.84582679 100.66016119 41.8671875 102.91015625 C41.47713521 109.49396988 41.47713521 109.49396988 39.21875 112.2421875 C36.86323436 113.80839878 34.50380613 114.99117577 31.9296875 116.16015625 C30.88167969 116.81177734 30.88167969 116.81177734 29.8125 117.4765625 C16.70590726 125.2892112 -0.2340943 125.85200062 -15.0703125 125.16015625 C-14.69777344 125.84980469 -14.32523438 126.53945313 -13.94140625 127.25 C-11.26875139 132.55889753 -9.06378081 137.08267454 -10.15234375 143.0859375 C-12.42452556 148.22010152 -17.55354519 151.14897805 -22.0703125 154.16015625 C-24.11328125 154.35546875 -24.11328125 154.35546875 -26.2578125 154.28515625 C-27.5159375 154.24390625 -28.7740625 154.20265625 -30.0703125 154.16015625 C-30.6953125 151.78515625 -30.6953125 151.78515625 -31.0703125 149.16015625 C-30.0803125 148.17015625 -30.0803125 148.17015625 -29.0703125 147.16015625 C-29.63878906 147.01320313 -30.20726563 146.86625 -30.79296875 146.71484375 C-37.89040247 144.65315182 -42.42057365 141.49369867 -47.0078125 135.72265625 C-48.47128742 132.1930991 -48.58600644 129.96339903 -48.0703125 126.16015625 C-46.1991531 121.6444249 -43.98940868 118.20548192 -39.4453125 116.16015625 C-36.0703125 115.16015625 -36.0703125 115.16015625 -33.0703125 115.16015625 C-35.59870813 112.55739604 -37.98040219 110.22808848 -40.8828125 108.03515625 C-51.39367809 99.36640112 -58.76950168 84.07838576 -60.3737793 70.61303711 C-60.50620162 68.03738566 -60.53862431 65.48896068 -60.5078125 62.91015625 C-60.49878906 61.99484131 -60.48976563 61.07952637 -60.48046875 60.13647461 C-60.0810099 44.35923715 -53.86224263 29.450827 -42.97265625 17.89453125 C-30.7134774 6.71778503 -16.30309526 1.26118284 0 0 Z M-37.4453125 123.28515625 C-39.52926191 125.68971326 -39.99614228 126.97083658 -40.0703125 130.16015625 C-38.83460017 133.6613412 -37.84441665 135.60108103 -34.8203125 137.78515625 C-31.23156798 138.2745305 -29.50517371 137.31555718 -26.53515625 135.359375 C-24.96378149 134.19530459 -24.96378149 134.19530459 -23.8828125 132.34765625 C-24.19577796 128.6963925 -25.62748445 125.81811972 -28.0703125 123.16015625 C-31.82306068 121.95391576 -33.85070175 121.5824459 -37.4453125 123.28515625 Z M-20.0703125 137.16015625 C-20.0703125 138.48015625 -20.0703125 139.80015625 -20.0703125 141.16015625 C-19.4103125 141.16015625 -18.7503125 141.16015625 -18.0703125 141.16015625 C-18.0703125 139.84015625 -18.0703125 138.52015625 -18.0703125 137.16015625 C-18.7303125 137.16015625 -19.3903125 137.16015625 -20.0703125 137.16015625 Z " fill="#333333" transform="translate(70.0703125,208.83984375)"/>
<path d="M0 0 C9.62015009 5.84335042 15.04195602 13.46443224 18.65234375 24.1875 C19.93163492 31.7770027 19.7485996 40.03492604 17 47.25 C17.66 46.92 18.32 46.59 19 46.25 C26.86666667 45.81296296 26.86666667 45.81296296 30 48.25 C30.309375 49.054375 30.61875 49.85875 30.9375 50.6875 C31.78239886 53.45080677 31.78239886 53.45080677 34.4375 54.6875 C37.70878846 56.68218808 38.49749498 58.79423846 40 62.25 C40.33 62.58 40.66 62.91 41 63.25 C41.36928918 67.09060744 41.43666229 69.48584099 39.5 72.875 C34.32632909 77.78998736 29.36058858 80.94966334 22.10546875 81.38671875 C16.8162342 81.04326196 13.40221365 78.04477676 10 74.25 C10.1546875 74.96542969 10.309375 75.68085938 10.46875 76.41796875 C11.50325951 81.93281722 12.49355831 87.54209457 9.68359375 92.63671875 C4.08232332 99.41588498 -2.70853504 101.35896413 -11 103.25 C-11.00515625 104.11753906 -11.0103125 104.98507813 -11.015625 105.87890625 C-12.4614273 110.83020538 -15.56022877 112.44718308 -19.75 115.1875 C-20.46671875 115.69345703 -21.1834375 116.19941406 -21.921875 116.72070312 C-27.13126005 120.23033478 -27.13126005 120.23033478 -30.93359375 120.31640625 C-33 119.25 -33 119.25 -33.80078125 117.4375 C-33.96964844 116.715625 -34.13851562 115.99375 -34.3125 115.25 C-35.13758214 112.95499572 -35.13758214 112.95499572 -37 111.25 C-41.05243864 110.47683736 -44.84795557 110.36722383 -48.95703125 110.3828125 C-52.94994699 110.37704933 -56.21975295 109.50514085 -60 108.25 C-60 107.59 -60 106.93 -60 106.25 C-59.32453125 106.00765625 -58.6490625 105.7653125 -57.953125 105.515625 C-51.21530749 103.05163073 -51.21530749 103.05163073 -46 98.25 C-46.99 96.6 -47.98 94.95 -49 93.25 C-47.1875 91.6875 -47.1875 91.6875 -45 90.25 C-42 91.25 -42 91.25 -40 93.25 C-36.52539523 85.7448537 -37.06568565 80.32394072 -38.53515625 72.34375 C-41.00771378 55.88773684 -35.89244845 44.58867267 -27 31.25 C-16.77943971 39.74501115 -6.70374395 49.57635548 -5.125 63.5 C-5.08375 64.7375 -5.0425 65.975 -5 67.25 C-1.7 67.58 1.6 67.91 5 68.25 C6.70993644 53.36515556 6.70993644 53.36515556 1.3125 39.8125 C0.879375 39.296875 0.44625 38.78125 0 38.25 C0 37.59 0 36.93 0 36.25 C-2.92690061 35.02277593 -5.86902467 33.95161629 -8.890625 32.98828125 C-21.3869517 28.9503477 -30.65863807 24.35797807 -37 12.25 C-41.38458693 2.83413189 -41.38458693 2.83413189 -40.34375 -1.453125 C-33.97272495 -12.34313293 -8.72262115 -4.4627364 0 0 Z M14.3125 54.8125 C11.75263548 57.10082683 11.75263548 57.10082683 11.25 60.4375 C12.31529034 65.85272592 15.24207904 69.29895248 19 73.25 C21.78934297 75.52343051 21.78934297 75.52343051 24.8125 75.1875 C28.91459996 73.98100001 30.88392104 72.14350189 34 69.25 C33.67 67.6 33.34 65.95 33 64.25 C32.278125 64.394375 31.55625 64.53875 30.8125 64.6875 C28.20833333 65.20833333 25.60416667 65.72916667 23 66.25 C22.67 64.6 22.34 62.95 22 61.25 C22.99 60.63125 23.98 60.0125 25 59.375 C25.99 58.67375 26.98 57.9725 28 57.25 C28 56.59 28 55.93 28 55.25 C26.741875 54.92 25.48375 54.59 24.1875 54.25 C23.47980469 54.064375 22.77210938 53.87875 22.04296875 53.6875 C18.71793791 52.97544751 17.29115664 53.08072288 14.3125 54.8125 Z M-4 73.25 C-4.26554687 74.26320313 -4.53109375 75.27640625 -4.8046875 76.3203125 C-5.16135689 77.67190177 -5.51813343 79.02346278 -5.875 80.375 C-6.04902344 81.04015625 -6.22304688 81.7053125 -6.40234375 82.390625 C-7.4631133 86.39797664 -8.64432311 90.32952899 -10 94.25 C-3.81446261 94.29802482 -3.81446261 94.29802482 1.8125 92.09375 C4.35464834 89.37827337 4.99355203 87.43054318 5.125 83.75 C3.73440118 79.42369256 2.20230491 77.45230491 -1 74.25 C-1.99 73.92 -2.98 73.59 -4 73.25 Z M-17.8125 101.0625 C-25.97248215 107.31897818 -25.97248215 107.31897818 -31 108.25 C-31 108.91 -31 109.57 -31 110.25 C-29.24704266 111.01760519 -29.24704266 111.01760519 -27 111.25 C-21.6906744 108.87591132 -16.17799473 105.28872824 -12 101.25 C-12 100.26 -12 99.27 -12 98.25 C-14.73941786 98.25 -15.67510149 99.38282354 -17.8125 101.0625 Z " fill="#366A6A" transform="translate(290,74.75)"/>
<path d="M0 0 C1.04070145 0.00007553 2.08140289 0.00015106 3.15364075 0.00022888 C4.26527084 0.00539017 5.37690094 0.01055145 6.5222168 0.01586914 C7.6693364 0.01728409 8.81645599 0.01869904 9.99833679 0.02015686 C13.65606309 0.02574679 17.3137278 0.0382975 20.97143555 0.05102539 C23.45385654 0.05604169 25.93627849 0.06060437 28.41870117 0.06469727 C34.49882202 0.07486129 40.57880997 0.09443884 46.65893555 0.11352539 C46.65893555 7.70352539 46.65893555 15.29352539 46.65893555 23.11352539 C43.30092773 23.16250977 39.94291992 23.21149414 36.4831543 23.26196289 C33.23644493 23.31594867 29.98981032 23.37326564 26.74316406 23.4309082 C24.48410596 23.4692276 22.22498622 23.5040752 19.96582031 23.53540039 C16.72137397 23.58098646 13.47735306 23.63899177 10.2331543 23.69946289 C9.22057053 23.7110141 8.20798676 23.72256531 7.16471863 23.73446655 C6.22396988 23.75433624 5.28322113 23.77420593 4.31396484 23.79467773 C3.48567673 23.8080014 2.65738861 23.82132507 1.80400085 23.83505249 C-0.63702579 23.99091298 -0.63702579 23.99091298 -3.34106445 26.11352539 C-3.59122318 29.6970978 -3.59122318 29.6970978 -3.34106445 33.11352539 C-2.34365234 33.11239746 -1.34624023 33.11126953 -0.31860352 33.11010742 C3.43927621 33.11382334 7.19590639 33.15702002 10.95336914 33.21118164 C12.56884623 33.22917065 14.18447495 33.23694169 15.80004883 33.23364258 C26.93657611 33.21983411 37.21555137 33.79498276 45.67504883 42.09057617 C50.50647775 47.82513295 53.35274019 55.40554173 53.0065918 62.94555664 C51.75333661 70.76079968 48.77457408 77.97612416 42.65893555 83.11352539 C34.02898755 88.71066431 26.72213907 89.95507844 16.58081055 89.69946289 C15.28822327 89.69097321 13.99563599 89.68248352 12.66387939 89.67373657 C9.27011109 89.65110861 5.87794757 89.59242516 2.48480225 89.5255127 C-0.99469303 89.46351587 -4.47445427 89.43660087 -7.9543457 89.40649414 C-14.75063401 89.34264408 -21.54560638 89.23734471 -28.34106445 89.11352539 C-28.34106445 81.52352539 -28.34106445 73.93352539 -28.34106445 66.11352539 C-26.71571777 66.09370605 -25.09037109 66.07388672 -23.41577148 66.0534668 C-17.40356564 65.97757545 -11.39160707 65.88883311 -5.37963867 65.79614258 C-2.77421946 65.75778457 -0.16874606 65.72294394 2.43676758 65.69165039 C6.17508357 65.64614788 9.91302419 65.58812913 13.65112305 65.52758789 C14.82198456 65.51603668 15.99284607 65.50448547 17.19918823 65.49258423 C18.28015778 65.47271454 19.36112732 65.45284485 20.47485352 65.43237305 C21.42971649 65.41904938 22.38457947 65.40572571 23.36837769 65.39199829 C25.85496202 65.32856608 25.85496202 65.32856608 27.65893555 63.11352539 C27.33852157 60.51071971 27.33852157 60.51071971 26.65893555 58.11352539 C25.70639893 58.10417969 24.7538623 58.09483398 23.77246094 58.08520508 C20.19925136 58.04498336 16.62687403 57.9791407 13.05419922 57.90600586 C11.51524643 57.87798097 9.97615465 57.85667553 8.43701172 57.8425293 C-3.58344154 57.72548496 -12.51637837 56.4888814 -21.61450195 48.04321289 C-27.34148732 41.64246454 -28.73879172 34.16182071 -28.61450195 25.79711914 C-27.76011557 17.41192703 -23.49270008 10.69771454 -17.34106445 5.11352539 C-11.88255412 1.09820329 -6.66894289 -0.01622614 0 0 Z " fill="#323232" transform="translate(240.341064453125,240.886474609375)"/>
<path d="M0 0 C2.90451548 2.35296115 5.03947789 4.80603645 7.2421875 7.81640625 C5.58387904 11.76203672 2.89506418 14.75060195 0.1171875 17.94140625 C-0.88649311 19.10975321 -1.88909025 20.27903178 -2.890625 21.44921875 C-3.38208008 22.02317383 -3.87353516 22.59712891 -4.37988281 23.18847656 C-6.2192296 25.361539 -7.9928184 27.58270002 -9.7578125 29.81640625 C-13.27889319 34.25916041 -16.92381924 38.58437742 -20.59692383 42.90112305 C-25.05589403 48.14811773 -29.41848797 53.46992985 -33.7578125 58.81640625 C-27.2446922 59.35916627 -22.07198749 58.87166767 -16.7578125 54.81640625 C-14.50449767 52.29884342 -12.5793579 49.65912104 -10.7578125 46.81640625 C-4.34711963 52.08742039 1.42809262 57.90768777 7.2421875 63.81640625 C0.60331552 74.20651077 -9.23054428 80.50021462 -21.16796875 83.40234375 C-32.99048294 85.29251947 -45.6554043 83.50610074 -55.7578125 76.81640625 C-66.47903043 68.50369906 -73.29903784 59.33272119 -75.7578125 45.81640625 C-76.65816573 36.10797844 -76.88739769 25.82357697 -72.7578125 16.81640625 C-72.34402344 15.90632813 -71.93023437 14.99625 -71.50390625 14.05859375 C-65.67496023 2.40070171 -57.29782106 -4.64575937 -45.0703125 -8.93359375 C-28.49267977 -14.01013526 -13.75133197 -9.91723785 0 0 Z M-47.6953125 20.50390625 C-52.48479456 28.19610471 -53.81077133 35.92539658 -51.7578125 44.81640625 C-51.0978125 45.47640625 -50.4378125 46.13640625 -49.7578125 46.81640625 C-41.49555868 36.32653133 -33.39952728 25.76835693 -25.7578125 14.81640625 C-26.0878125 14.15640625 -26.4178125 13.49640625 -26.7578125 12.81640625 C-35.21920103 12.03294435 -41.44376873 14.78440876 -47.6953125 20.50390625 Z " fill="#323232" transform="translate(197.7578125,248.18359375)"/>
<path d="M0 0 C6 0 6 0 8.1171875 1.96875 C8.69726562 2.8040625 9.27734375 3.639375 9.875 4.5 C10.47054688 5.3353125 11.06609375 6.170625 11.6796875 7.03125 C12.11539062 7.6809375 12.55109375 8.330625 13 9 C13.61746094 8.60167969 14.23492187 8.20335937 14.87109375 7.79296875 C16.14146484 6.99826172 16.14146484 6.99826172 17.4375 6.1875 C18.26121094 5.66542969 19.08492188 5.14335937 19.93359375 4.60546875 C28.81706114 -0.04562055 36.59599061 -0.38632039 46.5625 -0.1875 C47.85736328 -0.17396484 49.15222656 -0.16042969 50.48632812 -0.14648438 C53.65773365 -0.11137656 56.82892285 -0.0575784 60 0 C60 7.59 60 15.18 60 23 C50.0625 23.3125 50.0625 23.3125 46.98852539 23.38793945 C39.95349536 23.66852144 32.79017463 24.28136831 27.5625 29.375 C24.03949159 35.29365412 23.72656103 39.91791758 23.8046875 46.67578125 C23.80893234 48.06351997 23.80893234 48.06351997 23.81326294 49.47929382 C23.82442608 52.42382942 23.84952363 55.36805688 23.875 58.3125 C23.88503479 60.31314664 23.89415977 62.31379806 23.90234375 64.31445312 C23.92435278 69.2097535 23.95885609 74.10482457 24 79 C24.28681641 78.04464355 24.57363281 77.08928711 24.86914062 76.10498047 C26.19278695 72.47066829 27.10968859 71.8091482 30.5 70.125 C31.2940625 69.71507812 32.088125 69.30515625 32.90625 68.8828125 C35 68 35 68 37 68 C37.66 66.68 38.32 65.36 39 64 C41.3125 63.8125 41.3125 63.8125 44 64 C45.66796875 65.51171875 45.66796875 65.51171875 47 67 C47.15855469 66.40832031 47.31710937 65.81664062 47.48046875 65.20703125 C49.51503438 58.31648578 51.93510844 54.70271754 58.375 51.125 C62.96553455 49.70035135 66.66163557 49.83081779 71 52 C71 55.3 71 58.6 71 62 C69.948125 61.484375 68.89625 60.96875 67.8125 60.4375 C64.52442938 59.02356294 62.45275062 58.67983065 59 60 C57.45413124 63.09173752 57.70640479 65.59429552 58 69 C59.26938424 71.68620182 59.26938424 71.68620182 62 73 C65.075101 73.02117109 67.98748586 72.59220363 71 72 C71 74.64 71 77.28 71 80 C68.6876551 81.15617245 67.25944273 81.16588704 64.6875 81.1875 C63.92824219 81.20167969 63.16898437 81.21585937 62.38671875 81.23046875 C59.63986194 80.96522398 57.50788101 80.12299804 55 79 C55.433125 79.64066406 55.86625 80.28132813 56.3125 80.94140625 C62.15171043 90.01110578 62.15171043 90.01110578 61 96 C58.13833063 101.40537547 53.87210441 105.92749256 48 108 C45.66796188 108.0777346 43.33160941 108.08967728 41 108 C41 105.69 41 103.38 41 101 C40.37351562 100.79503906 39.74703125 100.59007812 39.1015625 100.37890625 C38.28429687 100.10949219 37.46703125 99.84007812 36.625 99.5625 C35.81289063 99.29566406 35.00078125 99.02882813 34.1640625 98.75390625 C32 98 32 98 30 97 C30.061875 98.216875 30.12375 99.43375 30.1875 100.6875 C30.15329919 105.55256459 28.84117668 108.04939938 25.48828125 111.6015625 C22.66488835 114.27902723 20.3786541 115.86425608 16.6875 117.1875 C10.83000338 116.88966119 5.601119 114.68760122 1.47265625 110.421875 C-1.46839226 105.94227086 -1.82995157 101.1534202 -1 96 C0.1589584 93.58130422 1.12322096 91.87677904 3 90 C2.01 89.67 1.02 89.34 0 89 C0 59.63 0 30.26 0 0 Z M32 79 C31.31864994 82.8325941 31.91675338 84.8126951 33.5 88.375 C36.14954781 91.1570252 36.47843588 91.42388979 40.0625 91.5625 C43.7934827 91.24890018 43.7934827 91.24890018 46.0625 89.9375 C47.64328326 86.67054792 46.94464797 84.42434889 46 81 C43.65299909 77.93585992 42.272431 76.24827922 38.4375 75.5 C35.4495567 76.11291145 34.05106343 76.72104064 32 79 Z M52 91 C51.34 91.66 50.68 92.32 50 93 C50.33 93.99 50.66 94.98 51 96 C51.66 95.34 52.32 94.68 53 94 C52.67 93.01 52.34 92.02 52 91 Z M9 93 C6.7716501 97.32562039 6.8048006 100.30457378 8 105 C9.54285631 107.54331238 9.54285631 107.54331238 12 109 C15.65852292 109.60975382 17.30512879 109.44543026 20.4375 107.4375 C22.30623981 104.99130007 22.30623981 104.99130007 22.0625 101.5 C20.78906305 97.30514888 19.79034421 96.14236847 16 94 C12.310252 93.19777849 12.310252 93.19777849 9 93 Z " fill="#333333" transform="translate(378,241)"/>
<path d="M0 0 C7.92 0 15.84 0 24 0 C24 11.55 24 23.1 24 35 C35.22 35 46.44 35 58 35 C58 42.59 58 50.18 58 58 C46.78 58 35.56 58 24 58 C24.0825 62.785 24.165 67.57 24.25 72.5 C24.27368652 74.74006836 24.27368652 74.74006836 24.29785156 77.02539062 C24.34202117 87.25611117 24.34202117 87.25611117 29 96 C34.61994139 100.52708302 41.05888861 100.64291106 48 100.75 C52.95 100.87375 52.95 100.87375 58 101 C58 108.59 58 116.18 58 124 C54.24625 124.061875 50.4925 124.12375 46.625 124.1875 C44.88210693 124.22846802 44.88210693 124.22846802 43.10400391 124.27026367 C32.71369158 124.35225069 24.4128688 122.14719015 16 116 C15.39285156 115.56945312 14.78570312 115.13890625 14.16015625 114.6953125 C7.1563511 109.27004549 1.96519436 100.80952096 0.71630859 91.99853516 C-0.07325818 84.7807173 -0.11507251 77.63000636 -0.0625 70.375 C-0.05798828 69.18003906 -0.05347656 67.98507812 -0.04882812 66.75390625 C-0.03715616 63.83591545 -0.01922515 60.91795081 0 58 C-3.63 58 -7.26 58 -11 58 C-11 50.41 -11 42.82 -11 35 C-7.37 35 -3.74 35 0 35 C0 23.45 0 11.9 0 0 Z " fill="#323232" transform="translate(308,206)"/>
<path d="M0 0 C2.05078125 0.03255208 4.1015625 0.06510417 6.15234375 0.09765625 C6.29929687 0.72414062 6.44625 1.350625 6.59765625 1.99609375 C7.95546688 7.38111298 7.95546688 7.38111298 12.08984375 10.78515625 C15.41494009 11.1244518 16.46981252 10.98954669 19.15234375 9.09765625 C19.85169515 6.91224073 19.85169515 6.91224073 19.90234375 4.47265625 C19.98484375 3.02890625 20.06734375 1.58515625 20.15234375 0.09765625 C23.45234375 0.09765625 26.75234375 0.09765625 30.15234375 0.09765625 C30.64734375 1.08765625 30.64734375 1.08765625 31.15234375 2.09765625 C31.48234375 1.43765625 31.81234375 0.77765625 32.15234375 0.09765625 C35.45234375 0.09765625 38.75234375 0.09765625 42.15234375 0.09765625 C41.82234375 1.41765625 41.49234375 2.73765625 41.15234375 4.09765625 C38.4435504 5.45205293 36.14301107 5.16267076 33.15234375 5.09765625 C33.054375 5.70738281 32.95640625 6.31710938 32.85546875 6.9453125 C32.00231087 9.55692356 31.19408088 10.09534749 28.90234375 11.53515625 C26.35093395 13.20676957 24.78726763 14.509537 22.71484375 16.84765625 C19.9424245 19.28197559 17.96745221 19.97674819 14.2890625 20.25 C10.55619307 19.98385392 7.55357736 18.61606411 4.15234375 17.09765625 C4.19875 17.74992187 4.24515625 18.4021875 4.29296875 19.07421875 C4.53664982 24.97478174 4.2865629 28.51649449 0.15234375 33.09765625 C-3.87953245 36.76299825 -8.04713041 36.38698539 -13.2265625 36.30078125 C-15.55941585 36.11999381 -17.60769344 35.75119834 -19.84765625 35.09765625 C-19.04328125 36.08765625 -18.23890625 37.07765625 -17.41015625 38.09765625 C-14.68348727 41.96173572 -13.36914886 45.33134733 -13.84765625 50.09765625 C-15.85359515 55.86912958 -19.74461204 59.02896011 -24.72265625 62.34765625 C-27.80932559 63.43706896 -30.60771611 63.28104909 -33.84765625 63.09765625 C-34.17765625 62.76765625 -34.50765625 62.43765625 -34.84765625 62.09765625 C-34.5603557 59.75820889 -34.22828846 57.42374195 -33.84765625 55.09765625 C-34.47414062 54.96488281 -35.100625 54.83210938 -35.74609375 54.6953125 C-36.56335938 54.51871094 -37.380625 54.34210937 -38.22265625 54.16015625 C-39.03476563 53.98613281 -39.846875 53.81210937 -40.68359375 53.6328125 C-42.84765625 53.09765625 -42.84765625 53.09765625 -44.84765625 52.09765625 C-44.85023437 52.73832031 -44.8528125 53.37898438 -44.85546875 54.0390625 C-45.11546288 59.85426455 -45.94895296 63.50545842 -50.1171875 67.68359375 C-52.97534819 70.01915621 -55.25746825 71.18489659 -58.84765625 72.09765625 C-61.27002891 71.8145743 -63.4899165 71.31623502 -65.83203125 70.640625 C-67.98253326 69.96760241 -67.98253326 69.96760241 -70.84765625 70.09765625 C-70.35265625 70.81953125 -69.85765625 71.54140625 -69.34765625 72.28515625 C-67.7684634 75.24614284 -67.56587313 76.81018654 -67.84765625 80.09765625 C-70.11383464 80.90700567 -71.40854651 81.24098313 -73.7265625 80.484375 C-76.66997054 78.56004746 -78.09347847 76.21005156 -80.03515625 73.28515625 C-80.8198227 72.11295323 -81.60499448 70.94108835 -82.390625 69.76953125 C-82.99269775 68.86364258 -82.99269775 68.86364258 -83.60693359 67.93945312 C-84.84445905 66.10240235 -86.11395662 64.29275304 -87.3984375 62.48828125 C-87.80876221 61.90925049 -88.21908691 61.33021973 -88.6418457 60.73364258 C-89.79234184 59.11307128 -90.94494619 57.49399729 -92.09765625 55.875 C-94.6612448 51.80644764 -94.6612448 51.80644764 -94.84765625 49.09765625 C-94.18765625 48.10765625 -93.52765625 47.11765625 -92.84765625 46.09765625 C-89.59000933 46.39329886 -88.2159088 46.68337213 -86.00390625 49.171875 C-85.1840625 50.46544922 -85.1840625 50.46544922 -84.34765625 51.78515625 C-81.71360095 55.80252287 -78.99502767 59.47341037 -75.84765625 63.09765625 C-76.05390625 61.92203125 -76.26015625 60.74640625 -76.47265625 59.53515625 C-77.05672801 54.59234005 -76.6751788 50.41599915 -73.48046875 46.36328125 C-70.47786358 43.22623107 -68.29627915 41.29483 -63.76171875 40.9296875 C-59.33060529 40.89187936 -55.88140093 41.01572351 -51.84765625 43.09765625 C-51.90953125 41.90140625 -51.97140625 40.70515625 -52.03515625 39.47265625 C-52.02043771 35.30730921 -51.17660659 32.63123608 -48.84765625 29.09765625 C-46.37645796 26.75652103 -44.40319409 25.30928971 -41.22265625 24.09765625 C-38.43325992 22.92317358 -37.44507111 21.61989024 -35.84765625 19.09765625 C-32.07125907 19.60798019 -30.40043044 20.30532554 -27.84765625 23.09765625 C-27.71810547 22.22753906 -27.71810547 22.22753906 -27.5859375 21.33984375 C-26.53584608 15.50172082 -25.1092758 12.25780867 -20.84765625 8.09765625 C-16.39281322 5.3497215 -11.92849449 5.670833 -6.84765625 6.09765625 C-3.72265625 7.09765625 -3.72265625 7.09765625 -1.84765625 8.09765625 C-2.03328125 6.96328125 -2.21890625 5.82890625 -2.41015625 4.66015625 C-2.62671875 2.89671875 -2.62671875 2.89671875 -2.84765625 1.09765625 C-1.84765625 0.09765625 -1.84765625 0.09765625 0 0 Z M-17.34765625 15.09765625 C-19.29996973 19.0022832 -19.05758699 20.93851934 -17.84765625 25.09765625 C-16.36772469 27.66104314 -16.36772469 27.66104314 -13.84765625 29.09765625 C-10.3853481 29.52285199 -8.01293955 29.73668258 -4.91015625 28.03515625 C-3.2028218 24.92178166 -3.42757077 22.5783645 -3.84765625 19.09765625 C-5.92342919 15.27823404 -7.1910432 14.30871044 -11.34765625 12.97265625 C-14.92511274 12.75206325 -14.92511274 12.75206325 -17.34765625 15.09765625 Z M-42.84765625 33.16015625 C-44.15331641 36.99553297 -43.97775178 39.21295285 -42.84765625 43.09765625 C-40.79884341 45.73691983 -40.79884341 45.73691983 -37.84765625 47.09765625 C-34.63382793 47.03337968 -32.6862819 46.62878583 -29.97265625 44.91015625 C-28.27445103 42.17415895 -28.46830242 40.25893819 -28.84765625 37.09765625 C-30.6123918 33.38608751 -30.6123918 33.38608751 -33.84765625 31.09765625 C-38.90059328 30.4171798 -38.90059328 30.4171798 -42.84765625 33.16015625 Z M-23.84765625 47.09765625 C-25.20477791 48.65621606 -25.20477791 48.65621606 -26.47265625 50.59765625 C-26.91867188 51.24734375 -27.3646875 51.89703125 -27.82421875 52.56640625 C-28.16195312 53.07171875 -28.4996875 53.57703125 -28.84765625 54.09765625 C-25.93248333 53.02364517 -24.06955449 52.31955449 -21.84765625 50.09765625 C-21.84765625 49.10765625 -21.84765625 48.11765625 -21.84765625 47.09765625 C-22.50765625 47.09765625 -23.16765625 47.09765625 -23.84765625 47.09765625 Z M-66.66015625 49.22265625 C-68.35822552 51.90381825 -68.72097065 53.93051618 -68.84765625 57.09765625 C-67.24353777 60.62671692 -66.10606263 61.92538533 -62.84765625 64.09765625 C-59.89019133 64.68111101 -59.89019133 64.68111101 -56.84765625 64.09765625 C-54.25643721 62.08782055 -54.25643721 62.08782055 -52.84765625 59.09765625 C-52.76370082 55.06779582 -53.59140216 53.43444733 -56.03515625 50.22265625 C-58.68837263 47.8725072 -58.68837263 47.8725072 -61.97265625 47.59765625 C-64.78471087 47.90208764 -64.78471087 47.90208764 -66.66015625 49.22265625 Z " fill="#F0F0F0" transform="translate(112.84765625,-0.09765625)"/>
<path d="M0 0 C1.02673828 0.61875 1.02673828 0.61875 2.07421875 1.25 C10.34042273 6.79229295 15.91220647 15.30080172 18 25 C19.58299595 34.12550607 19.58299595 34.12550607 17 38 C16.63648438 37.38511719 16.27296875 36.77023438 15.8984375 36.13671875 C11.80130113 29.48450226 11.80130113 29.48450226 5 26 C-5.65737861 24.39831304 -13.89130754 29.77392727 -22.484375 35.390625 C-33.26042934 42.2846225 -45.61693798 42.88894166 -58 41 C-60.85414791 40.20485615 -63.29992149 39.24203611 -66 38 C-65.50241812 26.30682585 -55.64103564 17.48753807 -47.703125 9.765625 C-34.77078282 -2.09645438 -16.64141497 -10.50345718 0 0 Z " fill="#356A6A" transform="translate(269,30)"/>
<path d="M0 0 C-0.06960937 1.39412109 -0.06960937 1.39412109 -0.140625 2.81640625 C-0.38805784 11.29098093 -0.45086445 16.25398539 5.47265625 22.5703125 C10.0420585 26.86965551 15.35386044 29.38698006 21 32 C26.87005175 34.72172457 31.71357068 36.9991658 36 42 C36.47953125 42.48984375 36.9590625 42.9796875 37.453125 43.484375 C44.26940012 50.71375771 47.51608273 59.16034883 48 69 C37.14966899 73.60317073 25.57775107 75.14488034 14.1875 71.5 C8.23769034 68.98625063 2.81032425 65.29858763 -2 61 C-2 60.34 -2 59.68 -2 59 C-2.66 59 -3.32 59 -4 59 C-12.67221334 47.63208661 -16.25600012 36.22493159 -15 22 C-13.46191419 15.57453871 -8.27658694 0 0 0 Z " fill="#366A6A" transform="translate(154,74)"/>
<path d="M0 0 C0.9435441 2.53899138 1.16906025 3.60909275 0.07421875 6.140625 C-0.38339844 6.83671875 -0.84101563 7.5328125 -1.3125 8.25 C-1.76238281 8.95640625 -2.21226562 9.6628125 -2.67578125 10.390625 C-3.11277344 10.92171875 -3.54976563 11.4528125 -4 12 C-4.66 12 -5.32 12 -6 12 C-6.31904297 12.79277344 -6.31904297 12.79277344 -6.64453125 13.6015625 C-8.5320853 16.94149964 -11.07728269 19.59522603 -13.6875 22.375 C-14.50323486 23.24608398 -14.50323486 23.24608398 -15.33544922 24.13476562 C-23.61406133 32.89483595 -32.67647833 40.84407079 -45.34399414 41.39428711 C-55.88029276 41.61177106 -63.82552943 39.01254798 -71.875 31.875 C-77.68513424 25.52372581 -82.17466211 16.44898239 -82.0625 7.8125 C-82.05347656 6.91144531 -82.04445312 6.01039063 -82.03515625 5.08203125 C-82.02355469 4.39496094 -82.01195312 3.70789063 -82 3 C-80 6 -80 6 -78.75 8.5 C-76.3812279 11.88396014 -74.99409985 12.80877724 -71 14 C-59.402619 14.23931104 -48.83767726 7.31747609 -39.33984375 1.3203125 C-27.25799768 -5.49715657 -12.69003419 -3.84130765 0 0 Z " fill="#1C313E" transform="translate(243,145)"/>
<path d="M0 0 C9.62015009 5.84335042 15.04195602 13.46443224 18.65234375 24.1875 C19.93163492 31.7770027 19.7485996 40.03492604 17 47.25 C17.99 47.745 17.99 47.745 19 48.25 C17.72183774 53.24645246 16.00048935 55.97687235 12 59.25 C8.6875 60.5625 8.6875 60.5625 6 61.25 C6.03480469 60.63253906 6.06960938 60.01507813 6.10546875 59.37890625 C6.36003999 51.41446306 5.2497814 44.49973976 0 38.25 C0 37.59 0 36.93 0 36.25 C-2.92690061 35.02277593 -5.86902467 33.95161629 -8.890625 32.98828125 C-21.3869517 28.9503477 -30.65863807 24.35797807 -37 12.25 C-41.38458693 2.83413189 -41.38458693 2.83413189 -40.34375 -1.453125 C-33.97272495 -12.34313293 -8.72262115 -4.4627364 0 0 Z " fill="#1D323E" transform="translate(290,74.75)"/>
<path d="M0 0 C1.34771484 -0.01836914 1.34771484 -0.01836914 2.72265625 -0.03710938 C7.2903227 -0.04722976 10.98603448 -0.00320769 15.125 2.1875 C15.125 2.5175 15.125 2.8475 15.125 3.1875 C14.14660156 3.33445312 14.14660156 3.33445312 13.1484375 3.484375 C5.57047545 4.78089948 0.79659642 6.85781699 -4.0625 13 C-10.61425369 22.33753872 -10.65964804 29.77418464 -8.875 40.6875 C-6.70379831 54.01149313 -8.46936718 63.50167858 -15.1796875 75.25390625 C-16.875 77.1875 -16.875 77.1875 -19.1953125 78.27734375 C-22.50811557 78.16627309 -24.06207521 76.96224683 -26.45605469 74.73828125 C-35.72453736 64.60865256 -40.67150544 49.77498328 -40.19921875 36.2578125 C-39.70991784 31.62419187 -38.5928841 27.50823881 -36.875 23.1875 C-36.47474609 22.14142578 -36.47474609 22.14142578 -36.06640625 21.07421875 C-31.52574918 10.68115924 -22.96988047 5.50960438 -12.875 1.1875 C-8.59155569 -0.24031477 -4.48652757 0.00319099 0 0 Z " fill="#1D323E" transform="translate(203.875,25.8125)"/>
<path d="M0 0 C5.51705397 4.10758763 9.66904582 8.99096463 11.1796875 15.7734375 C12.21858069 23.77179795 10.6277804 29.43959087 6.85546875 36.4453125 C2.15767181 42.18706432 -3.4228822 45.61318904 -10.86328125 46.484375 C-18.89727486 46.91315556 -25.1360176 44.89680537 -31.24609375 39.5859375 C-35.99484489 34.48629342 -38.45244244 28.77535914 -38.83203125 21.8203125 C-38.53742417 14.70064138 -35.94341859 8.45862103 -31.08203125 3.2578125 C-22.72882389 -4.1828596 -9.85205928 -6.00786557 0 0 Z " fill="#1D323E" transform="translate(237.39453125,84.8046875)"/>
<path d="M0 0 C0 3.3 0 6.6 0 10 C-1.051875 9.484375 -2.10375 8.96875 -3.1875 8.4375 C-6.47557062 7.02356294 -8.54724938 6.67983065 -12 8 C-13.54586876 11.09173752 -13.29359521 13.59429552 -13 17 C-11.73061576 19.68620182 -11.73061576 19.68620182 -9 21 C-5.924899 21.02117109 -3.01251414 20.59220363 0 20 C0 22.64 0 25.28 0 28 C-2.3123449 29.15617245 -3.74055727 29.16588704 -6.3125 29.1875 C-7.07175781 29.20167969 -7.83101563 29.21585937 -8.61328125 29.23046875 C-11.36013806 28.96522398 -13.49211899 28.12299804 -16 27 C-15.566875 27.64066406 -15.13375 28.28132813 -14.6875 28.94140625 C-8.84828957 38.01110578 -8.84828957 38.01110578 -10 44 C-12.86166937 49.40537547 -17.12789559 53.92749256 -23 56 C-25.33203812 56.0777346 -27.66839059 56.08967728 -30 56 C-30 53.69 -30 51.38 -30 49 C-30.62648438 48.79503906 -31.25296875 48.59007812 -31.8984375 48.37890625 C-32.71570313 48.10949219 -33.53296875 47.84007812 -34.375 47.5625 C-35.18710937 47.29566406 -35.99921875 47.02882813 -36.8359375 46.75390625 C-39 46 -39 46 -41 45 C-40.938125 46.216875 -40.87625 47.43375 -40.8125 48.6875 C-40.84670081 53.55256459 -42.15882332 56.04939938 -45.51171875 59.6015625 C-48.33511165 62.27902723 -50.6213459 63.86425608 -54.3125 65.1875 C-60.16999662 64.88966119 -65.398881 62.68760122 -69.52734375 58.421875 C-72.46839226 53.94227086 -72.82995157 49.1534202 -72 44 C-70.8410416 41.58130422 -69.87677904 39.87677904 -68 38 C-60.97944647 36.96418063 -54.08706963 36.89207508 -47 37 C-47.02320313 36.34773438 -47.04640625 35.69546875 -47.0703125 35.0234375 C-47.27894257 24.91978122 -47.27894257 24.91978122 -45 21 C-37.98408488 16 -37.98408488 16 -34 16 C-33.34 14.68 -32.68 13.36 -32 12 C-29.6875 11.8125 -29.6875 11.8125 -27 12 C-25.33203125 13.51171875 -25.33203125 13.51171875 -24 15 C-23.84144531 14.40832031 -23.68289063 13.81664062 -23.51953125 13.20703125 C-21.48496562 6.31648578 -19.06489156 2.70271754 -12.625 -0.875 C-8.03446545 -2.29964865 -4.33836443 -2.16918221 0 0 Z M-39 27 C-39.68135006 30.8325941 -39.08324662 32.8126951 -37.5 36.375 C-34.85045219 39.1570252 -34.52156412 39.42388979 -30.9375 39.5625 C-27.2065173 39.24890018 -27.2065173 39.24890018 -24.9375 37.9375 C-23.35671674 34.67054792 -24.05535203 32.42434889 -25 29 C-27.34700091 25.93585992 -28.727569 24.24827922 -32.5625 23.5 C-35.5504433 24.11291145 -36.94893657 24.72104064 -39 27 Z M-19 39 C-19.66 39.66 -20.32 40.32 -21 41 C-20.67 41.99 -20.34 42.98 -20 44 C-19.34 43.34 -18.68 42.68 -18 42 C-18.33 41.01 -18.66 40.02 -19 39 Z M-62 41 C-64.2283499 45.32562039 -64.1951994 48.30457378 -63 53 C-61.45714369 55.54331238 -61.45714369 55.54331238 -59 57 C-55.34147708 57.60975382 -53.69487121 57.44543026 -50.5625 55.4375 C-48.69376019 52.99130007 -48.69376019 52.99130007 -48.9375 49.5 C-50.21093695 45.30514888 -51.20965579 44.14236847 -55 42 C-58.689748 41.19777849 -58.689748 41.19777849 -62 41 Z " fill="#F0F0F0" transform="translate(449,293)"/>
<path d="M0 0 C1.9451 2.91765 2.45276317 4.62537285 3 8 C3.53625 7.690625 4.0725 7.38125 4.625 7.0625 C7.61512853 5.72481092 9.69606099 5 13 5 C14.21316913 6.50826433 15.41981203 8.02385422 16.55175781 9.59399414 C18.42951321 11.41698695 19.40249719 11.33541453 21.984375 11.37109375 C28.00305939 11.85458076 32.6741059 14.3801099 37.9375 17.1875 C38.88173828 17.65736328 39.82597656 18.12722656 40.79882812 18.61132812 C47.49762512 22.12615862 47.49762512 22.12615862 49.75390625 26.05078125 C50 29 50 29 48 34 C40.41 34 32.82 34 25 34 C25.66 32.35 26.32 30.7 27 29 C26.28972656 28.61328125 25.57945312 28.2265625 24.84765625 27.828125 C23.92855469 27.30734375 23.00945312 26.7865625 22.0625 26.25 C21.14597656 25.73953125 20.22945313 25.2290625 19.28515625 24.703125 C17 23 17 23 16.18359375 20.796875 C16.12300781 20.20390625 16.06242187 19.6109375 16 19 C14.4221875 19.0928125 14.4221875 19.0928125 12.8125 19.1875 C9 19 9 19 4 16 C4.33 21.94 4.66 27.88 5 34 C0.38 34 -4.24 34 -9 34 C-9.55778067 29.45978533 -10.09677095 24.9186651 -10.625 20.375 C-10.78484375 19.08980469 -10.9446875 17.80460937 -11.109375 16.48046875 C-11.25117188 15.23652344 -11.39296875 13.99257813 -11.5390625 12.7109375 C-11.67521973 11.56931152 -11.81137695 10.42768555 -11.95166016 9.25146484 C-12.00450261 5.69714239 -11.38664822 3.25811767 -10 0 C-6.55377536 -2.95390684 -3.88112972 -1.77182009 0 0 Z " fill="#F0F0F0" transform="translate(328,345)"/>
<path d="M0 0 C8.03141361 -0.30890052 8.03141361 -0.30890052 11 2 C11.309375 2.804375 11.61875 3.60875 11.9375 4.4375 C12.78239886 7.20080677 12.78239886 7.20080677 15.4375 8.4375 C18.70878846 10.43218808 19.49749498 12.54423846 21 16 C21.33 16.33 21.66 16.66 22 17 C22.36928918 20.84060744 22.43666229 23.23584099 20.5 26.625 C15.32632909 31.53998736 10.36058858 34.69966334 3.10546875 35.13671875 C-2.1837658 34.79326196 -5.59778635 31.79477676 -9 28 C-8.8453125 28.71542969 -8.690625 29.43085938 -8.53125 30.16796875 C-7.49674049 35.68281722 -6.50644169 41.29209457 -9.31640625 46.38671875 C-14.91767668 53.16588498 -21.70853504 55.10896413 -30 57 C-30.00515625 57.86753906 -30.0103125 58.73507813 -30.015625 59.62890625 C-31.4614273 64.58020538 -34.56022877 66.19718308 -38.75 68.9375 C-39.46671875 69.44345703 -40.1834375 69.94941406 -40.921875 70.47070312 C-46.11392488 73.96865585 -46.11392488 73.96865585 -49.87109375 74.1015625 C-52.67486749 72.65080251 -53.20142656 71.35921163 -54.3125 68.4375 C-54.63863281 67.61121094 -54.96476563 66.78492188 -55.30078125 65.93359375 C-55.53152344 65.29550781 -55.76226562 64.65742188 -56 64 C-50.41666667 62.85795455 -50.41666667 62.85795455 -48.109375 63.64453125 C-45.00835445 64.16711064 -43.6032474 62.91671328 -41 61.25 C-40.154375 60.71890625 -39.30875 60.1878125 -38.4375 59.640625 C-33.94558797 56.97173282 -33.94558797 56.97173282 -31.25 52.8125 C-31.1675 52.214375 -31.085 51.61625 -31 51 C-30.34 51 -29.68 51 -29 51 C-28.67 50.01 -28.34 49.02 -28 48 C-26.07421875 47.4453125 -26.07421875 47.4453125 -23.6875 47.125 C-20.31168152 46.4627581 -19.10218025 46.0851502 -16.375 43.8125 C-14.51808404 40.0142628 -14.84731013 38.03441453 -16 34 C-18.12167682 30.81748477 -19.80900708 29.12732861 -23 27 C-23.1875 23.875 -23.1875 23.875 -23 21 C-20.03 21.33 -17.06 21.66 -14 22 C-13.67 19.69 -13.34 17.38 -13 15 C-11.02 14.34 -9.04 13.68 -7 13 C-6.79375 13.825 -6.5875 14.65 -6.375 15.5 C-4.35818727 20.63370513 -1.6059648 25.6636078 3.4375 28.25 C7.22633379 27.88035768 10.12264108 26.49733039 13 24 C14.04510361 21.37897003 14.04510361 21.37897003 14 19 C13.278125 19.144375 12.55625 19.28875 11.8125 19.4375 C10.884375 19.623125 9.95625 19.80875 9 20 C8.113125 20.226875 7.22625 20.45375 6.3125 20.6875 C5.549375 20.790625 4.78625 20.89375 4 21 C3.34 20.34 2.68 19.68 2 19 C2.0625 16.5625 2.0625 16.5625 3 14 C5.5 12.3125 5.5 12.3125 8 11 C8.33 10.34 8.66 9.68 9 9 C5.37 8.34 1.74 7.68 -2 7 C-1 2 -1 2 0 0 Z " fill="#F1F1F2" transform="translate(309,121)"/>
<path d="M0 0 C4 2 4 2 4.75 4.125 C4.8325 4.74375 4.915 5.3625 5 6 C6.09699219 5.90074219 7.19398438 5.80148438 8.32421875 5.69921875 C14.1371005 5.70306071 18.71537832 8.24788804 23.8125 10.8125 C24.75287109 11.26431641 25.69324219 11.71613281 26.66210938 12.18164062 C34.4807658 16.00993201 34.4807658 16.00993201 37 19 C37.5749726 21.84667807 37.28110629 24.04838397 37 27 C33.09505171 29.60329886 30.37202275 28.80930803 26 28 C24.65915264 27.69830934 23.3193938 27.38482319 22 27 C22.4125 28.051875 22.825 29.10375 23.25 30.1875 C24 34 24 34 22.51171875 36.4140625 C19.4666449 39.54911521 16.22005542 41.8242115 12.5625 44.1875 C11.57926758 44.84395508 11.57926758 44.84395508 10.57617188 45.51367188 C7.15311142 47.76252303 3.89806426 49.65558092 0 51 C-1.92497212 37.59100618 -1.92497212 37.59100618 1.1953125 33.39111328 C6.00250665 29.01379323 11.95631851 26.25357615 18 24 C17.16855469 23.61328125 16.33710938 23.2265625 15.48046875 22.828125 C14.39378906 22.30734375 13.30710937 21.7865625 12.1875 21.25 C11.10855469 20.73953125 10.02960937 20.2290625 8.91796875 19.703125 C6.05477454 18.03197015 4.64526071 16.84023955 3 14 C3 13.34 3 12.68 3 12 C2.01 12 1.02 12 0 12 C0 8.04 0 4.08 0 0 Z " fill="#F0F0F0" transform="translate(0,65)"/>
<path d="M0 0 C1.01320313 0.51046875 2.02640625 1.0209375 3.0703125 1.546875 C5.81439349 3.21319716 7.79044974 4.81883834 9.875 7.25 C10.26671753 8.90391846 10.59557545 10.57345271 10.875 12.25 C11.41125 13.1575 11.9475 14.065 12.5 15 C14.35545381 19.38561809 14.56691126 22.75902817 12.875 27.25 C9.79982633 30.86623986 4.69706964 35.98020367 -0.16796875 36.4453125 C-1.22951172 36.41050781 -1.22951172 36.41050781 -2.3125 36.375 C-3.570625 36.33375 -4.82875 36.2925 -6.125 36.25 C-6.75 33.875 -6.75 33.875 -7.125 31.25 C-6.465 30.59 -5.805 29.93 -5.125 29.25 C-5.97771484 29.02957031 -5.97771484 29.02957031 -6.84765625 28.8046875 C-13.94508997 26.74299557 -18.47526115 23.58354242 -23.0625 17.8125 C-24.52597492 14.28294285 -24.64069394 12.05324278 -24.125 8.25 C-22.18300056 3.56330802 -20.09883873 0.81659708 -15.6875 -1.75 C-9.52266601 -3.48047972 -5.67210912 -2.93034793 0 0 Z M-13.5 5.375 C-15.58394941 7.77955701 -16.05082978 9.06068033 -16.125 12.25 C-14.88928767 15.75118495 -13.89910415 17.69092478 -10.875 19.875 C-7.28625548 20.36437425 -5.55986121 19.40540093 -2.58984375 17.44921875 C-1.01846899 16.28514834 -1.01846899 16.28514834 0.0625 14.4375 C-0.25046546 10.78623625 -1.68217195 7.90796347 -4.125 5.25 C-7.87774818 4.04375951 -9.90538925 3.67228965 -13.5 5.375 Z M3.875 19.25 C3.875 20.57 3.875 21.89 3.875 23.25 C4.535 23.25 5.195 23.25 5.875 23.25 C5.875 21.93 5.875 20.61 5.875 19.25 C5.215 19.25 4.555 19.25 3.875 19.25 Z " fill="#EFEFF0" transform="translate(46.125,326.75)"/>
<path d="M0 0 C3.96687366 2.25701433 5.79408047 5.5070554 8.21875 9.296875 C9.14288845 10.71026322 10.06994032 12.12175111 11 13.53125 C11.44706299 14.2123584 11.89412598 14.8934668 12.35473633 15.59521484 C13.66487662 17.46979181 15.06547413 19.16632108 16.57421875 20.8828125 C18.71875 23.546875 18.71875 23.546875 18.53125 26.421875 C18.263125 27.123125 17.995 27.824375 17.71875 28.546875 C16.77 28.794375 15.82125 29.041875 14.84375 29.296875 C11.28315032 30.72111487 11.20132341 31.26403387 9.71875 34.546875 C7.78125 35.421875 7.78125 35.421875 5.71875 35.546875 C4.72875 34.886875 3.73875 34.226875 2.71875 33.546875 C-1.46180914 33.85091566 -4.61301351 34.57973279 -8.28125 36.546875 C-8.22324219 37.23394531 -8.16523438 37.92101562 -8.10546875 38.62890625 C-7.96947412 41.34491321 -7.91216901 43.85041269 -8.28125 46.546875 C-10.78125 48.671875 -10.78125 48.671875 -13.28125 49.546875 C-15.55666078 47.27146422 -15.60850969 46.6182862 -16.09375 43.546875 C-17.17658044 37.53408481 -18.86835209 31.73152141 -20.60473633 25.88085938 C-22.75185513 18.45142697 -22.75185513 18.45142697 -22.28125 14.546875 C-20.65625 12.671875 -20.65625 12.671875 -18.28125 11.546875 C-11.94860629 11.25233343 -7.86207172 15.73469964 -3.28125 19.546875 C2.52678579 24.52963609 2.52678579 24.52963609 9.71875 26.546875 C6.6865286 20.94293312 3.20387461 16.19200007 -0.921875 11.35351562 C-3.2241107 8.50655452 -4.25592228 6.83714398 -4.578125 3.14453125 C-4.48015625 2.28730469 -4.3821875 1.43007812 -4.28125 0.546875 C-2.28125 -0.453125 -2.28125 -0.453125 0 0 Z M-14.28125 20.546875 C-14.136875 21.825625 -13.9925 23.104375 -13.84375 24.421875 C-13.76253906 25.14117187 -13.68132812 25.86046875 -13.59765625 26.6015625 C-13.36832039 28.62091816 -13.36832039 28.62091816 -12.28125 30.546875 C-10.96125 30.546875 -9.64125 30.546875 -8.28125 30.546875 C-7.33104584 28.30704 -7.33104584 28.30704 -7.28125 25.546875 C-9.48989421 22.67135978 -9.48989421 22.67135978 -12.28125 20.546875 C-12.94125 20.546875 -13.60125 20.546875 -14.28125 20.546875 Z " fill="#F1F1F1" transform="translate(377.28125,73.453125)"/>
<path d="M0 0 C6.43560664 3.21780332 10.35264475 8.38161188 13 15 C13.80773471 20.45220929 12.59864173 23.79786874 9.5390625 28.19921875 C6.41509386 31.85442063 3.36209833 33.55343415 -1.35546875 34.4453125 C-7.2809586 34.86790557 -11.35197281 33.46819075 -16.078125 29.8984375 C-19.91971665 26.10369452 -21.66369542 22.04226294 -22.25390625 16.703125 C-22.08608863 10.9775827 -19.71069995 7.73491644 -15.88671875 3.62890625 C-11.03494959 -0.55988824 -6.20531628 -0.79530161 0 0 Z M-14 11 C-15.50889469 14.01778937 -15.50026276 15.62322637 -15 19 C-12.56718631 22.48363636 -9.8486171 26.07569145 -6 28 C-2.12785818 28.43023798 -0.47503629 28.31669086 2.8125 26.125 C5.29729948 23.71119479 5.88961808 22.77267344 6.375 19.375 C5.86456494 14.78108449 3.86429306 11.58238344 1 8 C-5.19158708 3.87227528 -9.53850971 5.48874729 -14 11 Z " fill="#F1F1F1" transform="translate(345,102)"/>
<path d="M0 0 C5.79004855 4.30542072 8.29332515 8.32343212 9.41015625 15.41796875 C9.45419464 19.27447348 8.01277591 21.0440784 5.4375 23.8125 C4.138125 25.235625 4.138125 25.235625 2.8125 26.6875 C-1.75097127 29.56079673 -5.30390878 29.6077016 -10.5625 28.8125 C-14.28683801 27.39048003 -17.0081282 25.86822676 -19.5625 22.8125 C-20.92744765 17.27216678 -20.71622161 10.379751 -19.5625 4.8125 C-14.91835964 -2.02470664 -7.28260437 -3.37486544 0 0 Z M-11.75 6.9375 C-14.28451548 9.55941256 -14.5625 11.18282518 -14.5625 14.8125 C-13.29392887 18.25717406 -13.29392887 18.25717406 -10.5625 20.8125 C-7.82671016 21.86989116 -5.47394012 22.15782419 -2.5625 21.8125 C0.16811576 20.49870182 0.16811576 20.49870182 1.4375 17.8125 C1.5635855 14.34514861 1.4134337 12.00630269 -0.83984375 9.25 C-4.42396091 6.03979837 -7.19160147 4.59318076 -11.75 6.9375 Z " fill="#F0F0F0" transform="translate(19.5625,342.1875)"/>
<path d="M0 0 C0.73075648 2.3140622 1.40138258 4.64828869 2 7 C2.66 7 3.32 7 4 7 C4.44621719 15.77560473 4.44621719 15.77560473 1 20 C-2.16011614 23.34792666 -4.94621523 25.6222281 -9.3125 27.1875 C-15.16999662 26.88966119 -20.398881 24.68760122 -24.52734375 20.421875 C-27.46839226 15.94227086 -27.82995157 11.1534202 -27 6 C-25.8410416 3.58130422 -24.87677904 1.87677904 -23 0 C-5.24050633 -2.62025316 -5.24050633 -2.62025316 0 0 Z M-17 3 C-19.2283499 7.32562039 -19.1951994 10.30457378 -18 15 C-16.45714369 17.54331238 -16.45714369 17.54331238 -14 19 C-10.34147708 19.60975382 -8.69487121 19.44543026 -5.5625 17.4375 C-3.69376019 14.99130007 -3.69376019 14.99130007 -3.9375 11.5 C-5.21093695 7.30514888 -6.20965579 6.14236847 -10 4 C-13.689748 3.19777849 -13.689748 3.19777849 -17 3 Z " fill="#F0F0F0" transform="translate(404,331)"/>
<path d="M0 0 C2.31 0.33 4.62 0.66 7 1 C7 1.99 7 2.98 7 4 C7.66 4.33 8.32 4.66 9 5 C9.99 5.66 10.98 6.32 12 7 C12 7.66 12 8.32 12 9 C12.66 9 13.32 9 14 9 C15.56578896 13.69736687 15.80730756 18.10945093 15 23 C11.80101838 28.81891908 7.29476866 32.01217832 1 34 C-1.65870217 34.73488775 -4.30887255 35.38623409 -7 36 C-7.00515625 36.86753906 -7.0103125 37.73507813 -7.015625 38.62890625 C-8.4614273 43.58020538 -11.56022877 45.19718308 -15.75 47.9375 C-16.46671875 48.44345703 -17.1834375 48.94941406 -17.921875 49.47070312 C-23.11392488 52.96865585 -23.11392488 52.96865585 -26.87109375 53.1015625 C-29.67486749 51.65080251 -30.20142656 50.35921163 -31.3125 47.4375 C-31.63863281 46.61121094 -31.96476563 45.78492188 -32.30078125 44.93359375 C-32.64689453 43.97646484 -32.64689453 43.97646484 -33 43 C-27.41666667 41.85795455 -27.41666667 41.85795455 -25.109375 42.64453125 C-22.00835445 43.16711064 -20.6032474 41.91671328 -18 40.25 C-17.154375 39.71890625 -16.30875 39.1878125 -15.4375 38.640625 C-10.94558797 35.97173282 -10.94558797 35.97173282 -8.25 31.8125 C-8.1675 31.214375 -8.085 30.61625 -8 30 C-7.34 30 -6.68 30 -6 30 C-5.67 29.01 -5.34 28.02 -5 27 C-3.07421875 26.4453125 -3.07421875 26.4453125 -0.6875 26.125 C2.68831848 25.4627581 3.89781975 25.0851502 6.625 22.8125 C8.48191596 19.0142628 8.15268987 17.03441453 7 13 C4.87832318 9.81748477 3.19099292 8.12732861 0 6 C-0.1875 2.875 -0.1875 2.875 0 0 Z " fill="#F0F1F2" transform="translate(286,142)"/>
<path d="M0 0 C0.86882812 0.18304688 1.73765625 0.36609375 2.6328125 0.5546875 C4.875 1.125 4.875 1.125 6.875 2.125 C6.1875 4.0625 6.1875 4.0625 4.875 6.125 C1.85810672 7.15936341 -0.48953075 7.10581417 -3.6875 6.9375 C-7.12379164 6.84163861 -7.12379164 6.84163861 -9.5625 8.6875 C-11.77619852 12.14086969 -11.74181173 14.08145644 -11.125 18.125 C-9.12628504 22.51156027 -7.01455648 24.71199163 -2.625 26.75 C0.79050668 27.32784592 0.79050668 27.32784592 3.6875 26.375 C6.65553329 23.32216576 6.8649281 20.54103254 7.41796875 16.40234375 C7.875 14.125 7.875 14.125 9.875 12.125 C11.195 12.125 12.515 12.125 13.875 12.125 C15.08307326 17.79769185 15.35024635 22.20224079 12.36328125 27.32421875 C9.00832748 31.38362476 4.80224324 33.60812663 -0.359375 34.51953125 C-6.78809555 34.46253905 -10.54004607 30.76135766 -15.05859375 26.546875 C-18.63070985 22.3602739 -19.553579 18.61827929 -19.3671875 13.109375 C-18.88372796 9.14812588 -17.4884411 6.34353432 -14.5078125 3.6796875 C-9.52922422 -0.05959554 -6.21601107 -1.35453376 0 0 Z " fill="#F1F1F1" transform="translate(415.125,51.875)"/>
<path d="M0 0 C2.35458423 2.50649289 2.22892804 3.3995582 2.25 6.75 C2.16967143 8.18902893 2.07286774 9.62760191 1.9375 11.0625 C0.7 10.0725 0.7 10.0725 -0.5625 9.0625 C-4.52397982 6.43402998 -7.37984962 6.45828705 -12.0625 7.0625 C-14.72916667 8.39583333 -14.72916667 8.39583333 -16.0625 11.0625 C-16.73125524 15.14190697 -16.88466406 17.46918206 -14.9921875 21.13671875 C-12.98650899 23.83835674 -11.38042407 25.75952895 -8.0234375 26.53125 C-4.63375027 26.58203183 -1.2815973 26.13553243 1.9375 25.0625 C1.9375 27.3725 1.9375 29.6825 1.9375 32.0625 C-4.48534818 34.79221048 -9.46125844 33.87272278 -15.875 31.875 C-19.64194566 29.73301129 -20.60721139 28.08594497 -22.0625 24.0625 C-22.0625 23.4025 -22.0625 22.7425 -22.0625 22.0625 C-22.7225 22.0625 -23.3825 22.0625 -24.0625 22.0625 C-24.6126851 15.4113735 -24.65371669 10.2450561 -20.60546875 4.72265625 C-14.8190674 -1.50321862 -7.9811494 -2.443209 0 0 Z " fill="#F1F1F1" transform="translate(447.0625,32.9375)"/>
<path d="M0 0 C2.7890625 -0.30078125 2.7890625 -0.30078125 6 0 C7.8359375 2.01953125 7.8359375 2.01953125 9.375 4.8125 C11.80118483 8.98704418 14.31310957 12.93020643 17.1875 16.8125 C17.85136719 17.72 18.51523437 18.6275 19.19921875 19.5625 C20.25239451 20.98805678 21.31373539 22.40776813 22.39453125 23.8125 C24.95040424 27.28053968 25.40705811 29.72588988 25 34 C22.525 34.495 22.525 34.495 20 35 C14.46069313 28.48618544 9.45063241 21.92320597 4.82421875 14.7265625 C3.03702372 11.93731385 3.03702372 11.93731385 0.75390625 9.38671875 C-1 7 -1 7 -0.75 3.1875 C-0.5025 2.135625 -0.255 1.08375 0 0 Z " fill="#EFEFEF" transform="translate(360,332)"/>
<path d="M0 0 C3 1 3 1 4.1875 3.0625 C4.455625 3.701875 4.72375 4.34125 5 5 C3.7934375 6.546875 3.7934375 6.546875 2.5625 8.125 C0.24261504 11.37415705 -0.90506351 13.91773082 -1 18 C-0.34 18.66 0.32 19.32 1 20 C-4.77807024 20.2358396 -9.51324804 19.86783046 -15 18 C-15 17.34 -15 16.68 -15 16 C-13.98679688 15.63648438 -13.98679688 15.63648438 -12.953125 15.265625 C-6.21530749 12.80163073 -6.21530749 12.80163073 -1 8 C-1.99 6.35 -2.98 4.7 -4 3 C-2.1875 1.4375 -2.1875 1.4375 0 0 Z " fill="#406F70" transform="translate(245,165)"/>
<path d="M0 0 C0.66 0.33 1.32 0.66 2 1 C1.505 1.763125 1.01 2.52625 0.5 3.3125 C-1.24368308 5.92363751 -1.24368308 5.92363751 -1 9 C-3.84237805 11.37966534 -5.90544119 12.86969538 -9.625 13.3125 C-13.56031613 11.13772003 -14.52146025 7.08869932 -16 3 C-10.43956044 1.86263736 -10.43956044 1.86263736 -8 2.625 C-4.84522772 3.2165198 -2.76087031 1.44045407 0 0 Z " fill="#E3E7E8" transform="translate(269,182)"/>
<path d="M0 0 C-0.33 3.96 -0.66 7.92 -1 12 C-1.66 10.68 -2.32 9.36 -3 8 C-3.66 8 -4.32 8 -5 8 C-5.33 9.65 -5.66 11.3 -6 13 C-7.32 12.67 -8.64 12.34 -10 12 C-10.99 15.3 -11.98 18.6 -13 22 C-14.28922633 16.84309466 -13.00375072 15.14503636 -10.60546875 10.6171875 C-4.09253731 0 -4.09253731 0 0 0 Z " fill="#3E6565" transform="translate(154,74)"/>
<path d="M0 0 C2.4375 0.75 2.4375 0.75 5 2 C5.9375 3.9375 5.9375 3.9375 6 6 C5.01 7.485 5.01 7.485 4 9 C1.4375 9.25 1.4375 9.25 -1 9 C-2 8 -2 8 -2.1875 5.0625 C-2 2 -2 2 0 0 Z " fill="#F0F0F0" transform="translate(400,87)"/>
<path d="M0 0 C0 0.66 0 1.32 0 2 C-1.4540625 1.9071875 -1.4540625 1.9071875 -2.9375 1.8125 C-6.14945946 1.78643948 -8.6178375 2.45433291 -11.625 3.5625 C-15.12902077 4.84431273 -17.36281406 5.29061437 -21 4 C-20.67 3.01 -20.34 2.02 -20 1 C-13.28837062 0.11978631 -6.76594019 -0.11381955 0 0 Z " fill="#A0A0A0" transform="translate(401,330)"/>
<path d="M0 0 C4.0042343 3.49087093 5.62671065 5.64951939 6 11 C4.02 11 2.04 11 0 11 C0 7.37 0 3.74 0 0 Z " fill="#F0F0F0" transform="translate(0,368)"/>
<path d="M0 0 C0.66 0.33 1.32 0.66 2 1 C0.72183774 5.99645246 -0.99951065 8.72687235 -5 12 C-8.3125 13.3125 -8.3125 13.3125 -11 14 C-11 12.02 -11 10.04 -11 8 C-10.67 8.99 -10.34 9.98 -10 11 C-4.99631929 8.70101157 -3.94782713 6.00869835 -2 1 C-1.34 0.67 -0.68 0.34 0 0 Z " fill="#78848B" transform="translate(307,122)"/>
<path d="M0 0 C1.98 0 3.96 0 6 0 C6 3 6 3 4 6 C3.34 6 2.68 6 2 6 C1.67 8.97 1.34 11.94 1 15 C0.67 15 0.34 15 0 15 C0 10.05 0 5.1 0 0 Z " fill="#383838" transform="translate(297,241)"/>
<path d="M0 0 C0.99 0.66 1.98 1.32 3 2 C4.32 2.66 5.64 3.32 7 4 C2.545 6.97 2.545 6.97 -2 10 C-2.66 9.01 -3.32 8.02 -4 7 C-3.525625 6.21625 -3.05125 5.4325 -2.5625 4.625 C-1.66101977 3.11051322 -0.78820515 1.5764103 0 0 Z " fill="#F1F2F4" transform="translate(271,180)"/>
<path d="M0 0 C4.875 2.75 4.875 2.75 6 5 C5.25363281 5.07089844 4.50726563 5.14179687 3.73828125 5.21484375 C0.23270728 6.22000833 -0.70914288 7.63429696 -2.8125 10.5625 C-3.41707031 11.38878906 -4.02164062 12.21507813 -4.64453125 13.06640625 C-5.31548828 14.02353516 -5.31548828 14.02353516 -6 15 C-6.33 14.34 -6.66 13.68 -7 13 C-5.8203125 10.72265625 -5.8203125 10.72265625 -4.125 8.0625 C-2.39015525 5.3230591 -1.02819637 3.0845891 0 0 Z " fill="#3F6365" transform="translate(262,106)"/>
<path d="M0 0 C0.66 0.33 1.32 0.66 2 1 C1 2 0 3 -1 4 C-1.680625 4.721875 -2.36125 5.44375 -3.0625 6.1875 C-5 8 -5 8 -7 8 C-7.226875 8.5775 -7.45375 9.155 -7.6875 9.75 C-9.33038023 12.5663661 -11.39533227 14.08077114 -14 16 C-14 13 -14 13 -11.69921875 10.37109375 C-10.7029415 9.38545764 -9.6986627 8.40785916 -8.6875 7.4375 C-8.18798828 6.94314453 -7.68847656 6.44878906 -7.17382812 5.93945312 C-4.87916575 3.69341936 -2.67939362 1.78626241 0 0 Z " fill="#446C6B" transform="translate(227,35)"/>
<path d="M0 0 C0.845625 0.20496094 1.69125 0.40992188 2.5625 0.62109375 C8.70600261 2.08017562 14.71390787 3.38371646 21 4 C21 4.33 21 4.66 21 5 C18.43571485 5.13559675 15.87864784 5.23433188 13.3125 5.3125 C12.59126953 5.35439453 11.87003906 5.39628906 11.12695312 5.43945312 C6.80422604 5.53814552 5.45467038 5.37938214 1.98046875 2.48046875 C1.00013672 1.25263672 1.00013672 1.25263672 0 0 Z " fill="#686868" transform="translate(51,329)"/>
<path d="M0 0 C3.13575839 3.4467427 3.68458025 6.50409022 4.3125 11.0625 C4.49425781 12.29097656 4.67601562 13.51945312 4.86328125 14.78515625 C5 18 5 18 3 21 C1.82428549 17.32589215 1.92633254 13.83070817 2 10 C1.67 10 1.34 10 1 10 C1 8.02 1 6.04 1 4 C0.34 4 -0.32 4 -1 4 C-0.67 2.68 -0.34 1.36 0 0 Z " fill="#3F6463" transform="translate(283,47)"/>
<path d="M0 0 C0.99 0.33 1.98 0.66 3 1 C3.33 1.99 3.66 2.98 4 4 C2.5625 6.1875 2.5625 6.1875 1 8 C-0.9375 7.1875 -0.9375 7.1875 -3 6 C-3.33 5.01 -3.66 4.02 -4 3 C-2.1875 1.4375 -2.1875 1.4375 0 0 Z " fill="#BCCDC9" transform="translate(245,165)"/>
<path d="M0 0 C2.31 0.33 4.62 0.66 7 1 C6.01 2.485 6.01 2.485 5 4 C4.34 4 3.68 4 3 4 C3 4.66 3 5.32 3 6 C-1 6 -1 6 -3 5 C-3 4.34 -3 3.68 -3 3 C-2.34 3 -1.68 3 -1 3 C-0.67 2.01 -0.34 1.02 0 0 Z " fill="#DDE4E8" transform="translate(281,169)"/>
<path d="M0 0 C-1.98 0.66 -3.96 1.32 -6 2 C-4.35 2.99 -2.7 3.98 -1 5 C-4.93670488 6.31223496 -7.12488144 5.24296256 -11 4 C-11 3.34 -11 2.68 -11 2 C-9.73392393 1.46770674 -8.46189588 0.94955456 -7.1875 0.4375 C-6.47980469 0.14746094 -5.77210938 -0.14257812 -5.04296875 -0.44140625 C-3 -1 -3 -1 0 0 Z " fill="#3F6464" transform="translate(241,179)"/>
<path d="M0 0 C2.93200474 2.85276137 5.64315404 5.65079784 8 9 C7.67 9.66 7.34 10.32 7 11 C6.01 10.34 5.02 9.68 4 9 C3.01 9.495 3.01 9.495 2 10 C2.33 8.02 2.66 6.04 3 4 C1.35 3.67 -0.3 3.34 -2 3 C-1.34 2.67 -0.68 2.34 0 2 C0 1.34 0 0.68 0 0 Z " fill="#3A6464" transform="translate(271,114)"/>
<path d="M0 0 C0.33 0.66 0.66 1.32 1 2 C1.66 2 2.32 2 3 2 C3.33 2.99 3.66 3.98 4 5 C-0.29 5 -4.58 5 -9 5 C-9 4.01 -9 3.02 -9 2 C-7.88625 1.855625 -6.7725 1.71125 -5.625 1.5625 C-2.17857953 1.21627965 -2.17857953 1.21627965 0 0 Z " fill="#436D6C" transform="translate(273,51)"/>
<path d="M0 0 C0.33 0.66 0.66 1.32 1 2 C0.401875 2.886875 -0.19625 3.77375 -0.8125 4.6875 C-2.14749404 6.7090624 -3.43294891 8.76598653 -4.625 10.875 C-5.07875 11.57625 -5.5325 12.2775 -6 13 C-6.66 13 -7.32 13 -8 13 C-6.63589551 7.40717158 -3.84616474 4.08806189 0 0 Z " fill="#3E6464" transform="translate(212,50)"/>
<path d="M0 0 C2.475 0.495 2.475 0.495 5 1 C5.33 3.31 5.66 5.62 6 8 C5.67 7.34 5.34 6.68 5 6 C4.34 5.71125 3.68 5.4225 3 5.125 C1 4 1 4 0.25 1.875 C0.1675 1.25625 0.085 0.6375 0 0 Z " fill="#F9FBFC" transform="translate(293,143)"/>
<path d="M0 0 C3.96 0.33 7.92 0.66 12 1 C8.22395846 3.51736102 5.68994863 4.2628809 1.1875 3.5625 C0.465625 3.376875 -0.25625 3.19125 -1 3 C-0.67 2.01 -0.34 1.02 0 0 Z " fill="#BFBFBF" transform="translate(381,331)"/>
<path d="M0 0 C2.84550012 0.66010476 5.52325999 1.51724966 8.25 2.5625 C8.95640625 2.83191406 9.6628125 3.10132813 10.390625 3.37890625 C10.92171875 3.58386719 11.4528125 3.78882813 12 4 C12 4.66 12 5.32 12 6 C3.64989059 4.66958425 3.64989059 4.66958425 0.9375 1.875 C0.628125 1.25625 0.31875 0.6375 0 0 Z " fill="#9E9E9E" transform="translate(37,324)"/>
<path d="M0 0 C0.33 1.32 0.66 2.64 1 4 C0.01 4.33 -0.98 4.66 -2 5 C-2.33 5.99 -2.66 6.98 -3 8 C-3.66 7.34 -4.32 6.68 -5 6 C-5 4.68 -5 3.36 -5 2 C-3.35 1.34 -1.7 0.68 0 0 Z " fill="#D5DDE2" transform="translate(301,134)"/>
<path d="M0 0 C2.4377963 -0.05397335 4.87439685 -0.09365616 7.3125 -0.125 C8.00279297 -0.14175781 8.69308594 -0.15851562 9.40429688 -0.17578125 C13.17135396 -0.21217794 14.78431704 -0.14378864 18 2 C17.01 2 16.02 2 15 2 C14.67 2.66 14.34 3.32 14 4 C13.34 3.34 12.68 2.68 12 2 C9.33050591 1.75684344 9.33050591 1.75684344 6.375 1.875 C5.37210938 1.89304687 4.36921875 1.91109375 3.3359375 1.9296875 C2.17964844 1.96449219 2.17964844 1.96449219 1 2 C0.67 1.34 0.34 0.68 0 0 Z " fill="#38635F" transform="translate(245,26)"/>
<path d="M0 0 C0.99 0.33 1.98 0.66 3 1 C2.67 3.31 2.34 5.62 2 8 C0.68 7.34 -0.64 6.68 -2 6 C-1.125 1.125 -1.125 1.125 0 0 Z " fill="#F8F8F8" transform="translate(313,134)"/>
<path d="M0 0 C0.33 0.66 0.66 1.32 1 2 C-1.97 3.65 -4.94 5.3 -8 7 C-8 5.68 -8 4.36 -8 3 C-5.36 2.01 -2.72 1.02 0 0 Z " fill="#416663" transform="translate(258,56)"/>
<path d="M0 0 C0.99 0 1.98 0 3 0 C3 2.31 3 4.62 3 7 C2.01 6.67 1.02 6.34 0 6 C0 4.02 0 2.04 0 0 Z " fill="#B2BDC0" transform="translate(286,142)"/>
<path d="M0 0 C1.485 0.99 1.485 0.99 3 2 C2.67 2.66 2.34 3.32 2 4 C3.32 4.33 4.64 4.66 6 5 C6 5.66 6 6.32 6 7 C4.02 6.34 2.04 5.68 0 5 C0 3.35 0 1.7 0 0 Z " fill="#3E6265" transform="translate(203,63)"/>
<path d="M0 0 C0.33 1.32 0.66 2.64 1 4 C2.32 4.33 3.64 4.66 5 5 C3.68 5 2.36 5 1 5 C0.67 6.32 0.34 7.64 0 9 C-0.33 9 -0.66 9 -1 9 C-1.625 5.625 -1.625 5.625 -2 2 C-1.34 1.34 -0.68 0.68 0 0 Z " fill="#F8F8F8" transform="translate(145,0)"/>
<path d="M0 0 C0.66 0.33 1.32 0.66 2 1 C-0.12780579 3.34058637 -2.11562221 4.70700306 -5 6 C-5 4.68 -5 3.36 -5 2 C-2.625 0.9375 -2.625 0.9375 0 0 Z " fill="#6A8E8F" transform="translate(279,169)"/>
<path d="M0 0 C0.99 0.495 0.99 0.495 2 1 C2.75 4.4375 2.75 4.4375 3 8 C2.34 8.66 1.68 9.32 1 10 C0.67 6.7 0.34 3.4 0 0 Z " fill="#3D6463" transform="translate(252,144)"/>
<path d="M0 0 C1.875 0.5625 1.875 0.5625 4 2 C5.25 5.625 5.25 5.625 6 9 C0.42857143 3.85714286 0.42857143 3.85714286 0 0 Z " fill="#3F6463" transform="translate(144,122)"/>
<path d="M0 0 C0.66 0.33 1.32 0.66 2 1 C1.1875 3.9375 1.1875 3.9375 0 7 C-0.99 7.33 -1.98 7.66 -3 8 C-2.74438677 5.6568787 -2.40729228 3.32156597 -2 1 C-1.34 0.67 -0.68 0.34 0 0 Z " fill="#9BA1A7" transform="translate(307,122)"/>
<path d="M0 0 C1.32 0 2.64 0 4 0 C4 2.31 4 4.62 4 7 C2 5.75 2 5.75 0 4 C0 2.68 0 1.36 0 0 Z " fill="#447374" transform="translate(282,142)"/>
<path d="M0 0 C2.1519437 3.22791555 2.20086443 4.28400809 2 8 C1.01 8 0.02 8 -1 8 C-1.125 2.25 -1.125 2.25 0 0 Z " fill="#3F6564" transform="translate(200,135)"/>
<path d="" fill="#FFFFFF" transform="translate(0,0)"/>
</svg>
